<svg enable-background="new 0 0 168.8 168.6" height="150" viewBox="0 0 168.8 168.6" width="150" xmlns="http://www.w3.org/2000/svg"><g fill="#3880ff"><path d="m84.5 46c-21.2 0-38.5 17.2-38.5 38.5s17.2 38.5 38.5 38.5 38.5-17.2 38.5-38.5c-.1-21.3-17.4-38.5-38.5-38.5z"/><circle cx="139.6" cy="31.8" r="17.6"/><path d="m161.2 49.4-.7-1.6-1.1 1.4c-2.9 3.2-6.5 5.7-10.6 7.2l-1.1.5.5 1.1c3.6 8.4 5.3 17.3 5.3 26.4 0 38-30.9 69-69 69s-68.9-31-68.9-69 30.9-69 69-69c10.3 0 20.2 2.3 29.5 6.7l1 .5.5-1.1c1.7-4 4.4-7.5 7.8-10.2l1.4-1.1-1.6-.8c-12.1-6.2-25-9.4-38.7-9.4-46.6-.2-84.5 37.7-84.5 84.2s37.9 84.4 84.4 84.4 84.4-37.9 84.4-84.4c0-11.9-2.5-23.7-7.6-34.8z"/></g></svg>