<svg height="1024" enable-background="new 0 0 512 512" viewBox="0 0 512 512" xmlns="http://www.w3.org/2000/svg"><g fill="#3880ff"><path d="m256 139.3c-64.3 0-116.7 52.3-116.7 116.7 0 64.3 52.3 116.7 116.7 116.7s116.7-52.4 116.7-116.7-52.4-116.7-116.7-116.7z"/><circle cx="423.5" cy="96.5" r="53.2"/><path d="m489 149.9-2.2-4.9-3.6 4c-8.7 9.9-19.8 17.5-32.1 22.1l-3.4 1.3 1.4 3.3c10.6 25.5 16 52.5 16 80.2 0 115.3-93.8 209.2-209.2 209.2s-209.1-93.8-209.1-209.1 93.9-209.2 209.2-209.2c31.3 0 61.5 6.8 89.6 20.2l3.3 1.6 1.4-3.3c5.1-12 13.3-22.7 23.6-31l4.2-3.4-4.8-2.5c-36.5-18.8-76-28.4-117.3-28.4-141.2 0-256 114.8-256 256s114.8 256 256 256 256-114.8 256-256c0-36.9-7.7-72.6-23-106.1z"/></g></svg>
