<svg height="1024" viewBox="0 0 400 400" xmlns="http://www.w3.org/2000/svg"><path d="m235.23 1.48a25.22 25.22 0 0 0 -8 1.45 22.74 22.74 0 0 1 9.6 13.41c.1.72.3 1.24.41 2a11.75 11.75 0 0 1 .2 1.86c.42 9.08-2.37 10.21-4.33 15.58a22 22 0 0 0 1.45 20.32 12.66 12.66 0 0 0 1.23 2.27c-3.92-26.1 17.85-30 21.88-38.17.26-7.2-5.67-11.91-10.27-15.2a22.8 22.8 0 0 0 -12.17-3.51zm32.77 5.88a11.58 11.58 0 0 0 -.21 3c-.1.82-.1 1.85-.21 2.68a20.91 20.91 0 0 1 -.72 2.47 21.79 21.79 0 0 1 -.82 2.48c-.42.83-.73 1.55-1.14 2.37-.31.42-.51.83-.82 1.24s-.42.62-.62.93c-.52.72-1 1.44-1.55 2.06a16.34 16.34 0 0 1 -1.86 1.86v.1c-.62.52-1.24 1.14-2 1.65-2.16 1.65-4.64 2.89-6.91 4.44a15.85 15.85 0 0 0 -2.06 1.55 13.58 13.58 0 0 0 -2 1.65 16.4 16.4 0 0 0 -1.86 2 15 15 0 0 0 -1.55 2.06c-.51.72-1 1.45-1.44 2.17s-.73 1.55-1.14 2.37a20.84 20.84 0 0 0 -.82 2.37c-.31.93-.52 1.76-.73 2.58-.1.42-.1.93-.2 1.34s-.11.83-.21 1.24c0 .83-.1 1.76-.1 2.58a11.6 11.6 0 0 0 .1 1.86 12.15 12.15 0 0 0 .31 2.58 19.75 19.75 0 0 0 .52 2.47c.31.83.51 1.66.82 2.48.21.52.52 1 .73 1.44l-23.61-9.22c-4-1.13-8-2.16-12-3.09l-6.5-1.55c-6.19-1.24-12.49-2.17-18.78-2.79-.2 0-.31-.1-.51-.1a184.22 184.22 0 0 0 -18.47-.93c-4.54 0-9.08.21-13.52.52-6.29.41-12.58 1.24-18.88 2.27-1.55.2-3.09.51-4.64.82-3.2.62-6.29 1.34-9.29 2.07l-4.64 1.24c-1.55.61-3 1.34-4.43 2l-3.41 1.54c-.21.11-.41.11-.52.21-1 .52-2 .93-2.88 1.44a7 7 0 0 0 -.73.31c-1.13.52-2.27 1.14-3.19 1.65-.73.31-1.45.73-2.07 1a9.39 9.39 0 0 1 -.93.51c-.92.52-1.85 1-2.68 1.55a23.58 23.58 0 0 0 -2.47 1.55c-.73.51-1.45.92-2.07 1.44-.1.1-.2.1-.31.21-.62.41-1.34.93-2 1.44l-.2.21c-.52.41-1 .82-1.55 1.24-.21.1-.41.31-.62.41-.52.41-1 .93-1.55 1.34-.1.21-.31.31-.41.41-.62.62-1.24 1.14-1.86 1.76-.1 0-.1.1-.2.2-.62.52-1.24 1.14-1.86 1.76-.1.1-.1.2-.21.2-.51.52-1 1-1.55 1.65-.2.21-.51.42-.72.62-.51.62-1.13 1.24-1.75 1.86-.1.21-.31.31-.41.52-.83.82-1.55 1.65-2.38 2.47l-.31.31a61.34 61.34 0 0 1 -5.26 5.06 60.54 60.54 0 0 1 -5.71 4.51c-2.06 1.44-4 2.68-6.19 3.92a63.81 63.81 0 0 1 -6.5 3.09c-2.16.93-4.43 1.76-6.7 2.48-4.33.93-8.77 2.68-12.59 3a23 23 0 0 0 -2.58.31c-.93.21-1.75.41-2.58.62l-2.47.93a27.22 27.22 0 0 0 -2.48 1.13c-.72.52-1.55.93-2.27 1.45a16.42 16.42 0 0 0 -2.07 1.77 18.31 18.31 0 0 0 -2.07 1.86c-.61.72-1.23 1.34-1.75 2.06s-1.12 1.55-1.54 2.38a18.81 18.81 0 0 0 -1.44 2.38c-.41.92-.83 1.75-1.14 2.68s-.62 1.75-.93 2.68a21.83 21.83 0 0 0 -.51 2.48c0 .1-.1.2-.1.31-.21.93-.21 2.16-.31 2.78a13.09 13.09 0 0 0 -.21 2.06 6.1 6.1 0 0 0 .1 1.34 11.29 11.29 0 0 0 .42 2 12.83 12.83 0 0 0 .72 1.85v.11a17.31 17.31 0 0 0 1.13 1.85c.42.62.83 1.24 1.34 1.86s1.14 1.14 1.76 1.65a14.76 14.76 0 0 0 2 1.65 23.77 23.77 0 0 0 6.29 4.54c.52.31 1 .52 1.65.83.11 0 .21.1.31.1a.89.89 0 0 0 .11.52 21.67 21.67 0 0 0 .51 2.47 14.12 14.12 0 0 0 .83 2.48c.31.62.51 1.24.82 1.86a2.71 2.71 0 0 0 .31.51c.41.83.83 1.55 1.24 2.27l1.55 2.17c.51.62 1.13 1.34 1.75 2s1.24 1.13 2 1.75a.34.34 0 0 0 .21.11c.62.51 1.24 1 1.85 1.44a16.51 16.51 0 0 0 2.19 1.27 17.42 17.42 0 0 0 2.38 1.14 12.48 12.48 0 0 0 2.06.72c.1.1.21.1.41.2.42.11.93.21 1.34.31-.3 5.58-.41 10.84.42 12.69.93 2.07 5.47-4.23 10-11.45-.62 7.12-1 15.48 0 18s7.3-5.52 12.7-14.4c73.14-16.92 139.89 33.64 146.91 105-1.31-11.11-15.06-17.3-21.31-15.75-3.09 7.63-8.35 17.43-16.81 23.52a66.39 66.39 0 0 0 -1-20.64 66.62 66.62 0 0 1 -12.8 26c-9.8.73-19.6-4-24.76-11.14-.41-.31-.51-.93-.82-1.34a18.57 18.57 0 0 1 -.83-2.17 8.37 8.37 0 0 1 -.62-2.16 16.58 16.58 0 0 1 -.1-2.27v-1.55a17 17 0 0 1 .51-2.17 18.31 18.31 0 0 1 .73-2.16 22.57 22.57 0 0 1 1.23-2.17c1.76-4.95 1.76-9-1.44-11.35a12.12 12.12 0 0 0 -2-1c-.41-.1-.93-.31-1.34-.41s-.52-.21-.83-.31a15.4 15.4 0 0 0 -2.16-.52 7.79 7.79 0 0 0 -2.17-.31 17.4 17.4 0 0 0 -2.27-.2c-.52 0-1 .1-1.55.1a7.93 7.93 0 0 0 -2.27.31 14.93 14.93 0 0 0 -2.16.41 17.79 17.79 0 0 0 -2.17.72c-.72.31-1.34.62-2.06.93s-1.24.72-2 1c-24 15.69-9.7 52.41 6.7 63-6.19 1.14-12.48 2.48-14.24 3.82l-.2.2a96.09 96.09 0 0 0 13.93 6.92c6.6 2.16 13.61 4.12 16.71 4.95v.1a99.8 99.8 0 0 0 26 1.86c45.7-3.2 83.15-38 90-83.78.21.93.42 1.76.62 2.69.31 1.85.72 3.81.93 5.77v.11a26.59 26.59 0 0 1 .41 2.68v.41a23.82 23.82 0 0 1 .21 2.69c.1 1.13.21 2.27.21 3.4v1.65c0 .52.1 1.14.1 1.65s-.1 1.24-.1 1.86v1.44c0 .73-.11 1.34-.11 2.07a6.56 6.56 0 0 1 -.1 1.34c0 .72-.1 1.44-.1 2.27a2.7 2.7 0 0 0 -.11.93c-.1.82-.2 1.54-.31 2.37a3 3 0 0 1 -.1.93c-.1 1-.31 2-.41 3v.21c-.21.92-.42 2-.62 2.89v.3c-.21.93-.41 1.86-.62 2.79 0 .1-.1.31-.1.41a28.67 28.67 0 0 1 -.73 2.79v.31c-.31 1-.62 2-.82 2.89a.3.3 0 0 0 -.11.2c-.3 1-.61 2.07-.92 3.1s-.73 2-1.14 3-.72 2.06-1.13 3-.83 2-1.24 3h-.1c-.42.93-.83 2-1.35 2.89a3.86 3.86 0 0 1 -.31.72c-.1.11-.1.21-.2.31a97.71 97.71 0 0 1 -29 34.67c-.83.52-1.65 1.13-2.48 1.75-.21.21-.51.31-.72.52-.72.52-1.45 1-2.27 1.55l.31.62h.1l4.34-.62h.1c2.68-.42 5.36-.93 8.05-1.45a18.93 18.93 0 0 0 2.27-.51c.51-.11.92-.21 1.44-.31.72-.11 1.44-.31 2.17-.42s1.23-.31 1.85-.51a195 195 0 0 0 29.88-9.91 165.14 165.14 0 0 1 -64.07 52.31 169 169 0 0 0 35.19-6.09 164.79 164.79 0 0 0 97.49-77.89 164.72 164.72 0 0 1 -27.75 66.34 162.05 162.05 0 0 0 71-110.6 164.15 164.15 0 0 1 3 49.73c74.47-103.9 6.14-211.6-22.41-239.98-.1-.2-.2-.3-.2-.51-.11.1-.11.1-.11.2 0-.1 0-.1-.1-.2 0 1.24-.1 2.47-.21 3.71-.3 2.38-.61 4.65-1 6.92s-1.13 4.53-1.75 6.8-1.55 4.44-2.48 6.61-2 4.23-3.09 6.29-2.38 4-3.72 5.88-2.78 3.82-4.23 5.57-3.19 3.51-4.85 5.16c-1 .93-2 1.76-3 2.58l-2.39 2.07a56.66 56.66 0 0 1 -5.78 4c-2 1.24-4 2.47-6.08 3.51s-4.34 2-6.5 2.88-4.44 1.55-6.71 2.17-4.64 1.14-6.91 1.55-4.75.62-7 .82c-1.65.11-3.3.21-4.95.21-2.37 0-4.75-.21-7-.41a68.7 68.7 0 0 1 -13.96-2.73h-.11c2.27-.2 4.54-.41 6.81-.82s4.64-.93 6.91-1.55 4.54-1.34 6.71-2.17a60.89 60.89 0 0 0 6.5-2.89 70.19 70.19 0 0 0 6.19-3.4c2-1.34 3.92-2.68 5.78-4.13a56.64 56.64 0 0 0 5.26-4.64 56.58 56.58 0 0 0 4.85-5.06q2.32-2.77 4.33-5.57c.21-.31.41-.72.62-1 1-1.65 2.06-3.3 3-5 1.14-2.06 2.17-4.13 3.1-6.29s1.75-4.34 2.47-6.61a69.27 69.27 0 0 0 1.76-6.7c.41-2.38.82-4.65 1-6.92s.41-4.74.41-7c0-1.65-.1-3.3-.2-5-.21-2.38-.52-4.65-.83-6.92s-.93-4.64-1.55-6.91-1.44-4.42-2.25-6.58a68.06 68.06 0 0 0 -2.89-6.4c-1.13-2.06-2.27-4.13-3.5-6.09s-2.69-3.81-4.13-5.67-3.1-3.51-4.75-5.26c-.82-.83-1.75-1.76-2.68-2.58-4.64-3.61-9.49-7-14.34-10.11a19.78 19.78 0 0 0 -2.06-1 40.65 40.65 0 0 0 -9.84-4.37z" fill="#ea2845"/></svg>
