<svg height="1024" viewBox="0 0 600 600" xmlns="http://www.w3.org/2000/svg"><path d="m300-42 321.6 170.9v342l-321.6 171-321.6-170.9v-342z" fill="#fff"/><path d="m564.2 459.1-253.5 134.9v-104.9l158-81.8zm17.3-14.7v-281.9l-92.7 50.3v181.3zm-546.7 14.7 253.5 134.8v-104.9l-158-81.7zm-17.3-14.7v-281.9l92.7 50.3v181.3s-92.7 50.3-92.7 50.3zm10.8-300.2 260.1-138.2v101.5l-166.6 86.1-1.3.7zm542.3 0-259.9-138.2v101.5l166.5 86.2 1.3.7z" fill="#8ed6fb"/><path d="m288.4 465.1-155.8-80.6v-159.5l155.8 84.5zm22.3 0 155.8-80.5v-159.6l-155.8 84.5zm-167.7-258.6 156.5-80.9 156.4 80.9-156.4 84.8z" fill="#1c78c0"/></svg>
