<svg height="280" viewBox="0 0 918 280" width="918" xmlns="http://www.w3.org/2000/svg"><g fill="#484b4d"><path d="m382.194 179.777c0 7.27-2.806 12.646-8.417 16.133-5.612 3.485-13.2 5.229-22.766 5.229-9.565 0-16.92-1.275-22.063-3.826-5.146-2.551-7.716-7.186-7.716-13.901 0-5.356 3.061-10.417 9.183-15.177-3.146-2.125-4.719-5.357-4.719-9.693 0-1.7 1.275-4.506 3.826-8.417l1.148-1.786c-5.783-4.165-8.673-10.309-8.673-18.429 0-8.118 2.443-14.007 7.333-17.664 4.888-3.655 11.371-5.484 19.449-5.484 3.655 0 7.27.427 10.841 1.275l2.041.383 20.534-.638v13.646l-9.565-.765c1.869 2.891 2.806 5.783 2.806 8.672 0 8.503-2.168 14.37-6.504 17.6-4.336 3.232-11.14 4.846-20.406 4.846-1.957 0-3.699-.169-5.229-.51-.851 2.212-1.275 4.017-1.275 5.42s.721 2.359 2.168 2.87c1.445.51 4.847.809 10.203.893 10.713.085 18.024 1.51 21.937 4.272 3.907 2.766 5.864 7.782 5.864 15.051zm-44.128 1.849c0 3.655 4.484 5.484 13.455 5.484 8.969 0 13.455-2.126 13.455-6.376 0-2.296-.765-3.763-2.295-4.4-1.531-.638-4.763-1-9.693-1.084l-11.479-.893c-2.295 2.295-3.443 4.719-3.443 7.269zm1.021-52.226c0 6.249 3.252 9.374 9.756 9.374s9.756-3.125 9.756-9.374c0-6.25-3.252-9.374-9.756-9.374s-9.756 3.125-9.756 9.374z"/><path d="m428.234 108.038h17.09v63.769h-16.962v-3.571c-6.122 3.401-11.437 5.101-15.942 5.101-8.844 0-14.794-2.443-17.855-7.333-3.061-4.889-4.591-13.073-4.591-24.551v-33.415h17.09v33.67c0 6.293.51 10.585 1.531 12.881 1.02 2.295 3.485 3.443 7.397 3.443 3.74 0 7.27-.594 10.585-1.786l1.658-.51v-47.698z"/><path d="m494.552 122.577h-15.687v26.145c0 2.551.064 4.358.191 5.42.127 1.064.594 1.977 1.403 2.742.807.765 2.061 1.148 3.762 1.148l9.693-.255.765 13.646c-5.697 1.275-10.033 1.913-13.009 1.913-7.652 0-12.881-1.722-15.687-5.165s-4.208-9.798-4.208-19.067v-26.527h-7.525v-14.54h7.525v-17.727h17.09v17.728h15.687z"/><path d="m520.889 155.673c1.997 1.744 4.866 2.614 8.609 2.614 7.907 0 14.963-.255 21.171-.765l3.571-.382.255 12.626c-9.778 2.379-18.621 3.571-26.528 3.571-9.609 0-16.58-2.551-20.916-7.652-4.336-5.102-6.504-13.392-6.504-24.87 0-22.871 9.394-34.308 28.186-34.308 18.535 0 27.803 9.609 27.803 28.823l-1.275 11.861h-37.496c.083 3.913 1.125 6.74 3.124 8.482zm18.811-21.49c0-5.101-.809-8.65-2.423-10.649-1.616-1.997-4.444-2.997-8.481-2.997-4.04 0-6.887 1.042-8.545 3.125-1.658 2.084-2.531 5.592-2.615 10.521z"/><path d="m587.016 122.577v49.229h-17.09v-49.229h-6.887v-14.54h6.887v-2.806c0-9.183 1.359-15.516 4.081-19.003 2.72-3.485 7.566-5.229 14.539-5.229 3.061 0 7.015.426 11.861 1.275l2.679.382-.256 13.904c-3.742-.169-6.887-.255-9.438-.255s-4.253.682-5.102 2.041c-.851 1.361-1.275 3.698-1.275 7.014v2.678h15.432v14.54h-15.431z"/><path d="m610.482 171.806v-63.769h16.962v6.76c7.142-4.25 13.943-7.015 20.406-8.29v17.217c-6.887 1.447-12.797 2.934-17.728 4.464l-2.551.893v42.725z"/><path d="m704.858 127.934v26.527c.169 2.041.51 3.466 1.02 4.272.51.809 1.573 1.383 3.188 1.722l-.51 12.881c-4.336 0-7.802-.299-10.395-.893-2.595-.596-5.209-1.786-7.843-3.571-6.122 2.975-12.371 4.463-18.748 4.463-13.18 0-19.768-6.971-19.768-20.916 0-6.801 1.827-11.625 5.484-14.475 3.655-2.848 9.267-4.528 16.835-5.038l13.646-1.02v-3.954c0-2.634-.596-4.442-1.786-5.42-1.192-.977-3.104-1.467-5.739-1.467l-23.977 1.021-.51-11.861c9.097-2.465 17.748-3.699 25.954-3.699 8.204 0 14.113 1.702 17.728 5.102 3.613 3.402 5.421 8.845 5.421 16.326zm-28.696 16.835c-4.763.426-7.142 2.977-7.142 7.652 0 4.677 2.083 7.015 6.25 7.015 3.23 0 6.759-.51 10.585-1.53l1.913-.51v-13.646z"/><path d="m777.043 179.777c0 7.27-2.806 12.646-8.417 16.133-5.612 3.485-13.2 5.229-22.766 5.229-9.565 0-16.92-1.275-22.063-3.826-5.146-2.551-7.716-7.186-7.716-13.901 0-5.356 3.061-10.417 9.183-15.177-3.146-2.125-4.719-5.357-4.719-9.693 0-1.7 1.275-4.506 3.826-8.417l1.148-1.786c-5.783-4.165-8.673-10.309-8.673-18.429 0-8.118 2.443-14.007 7.333-17.664 4.888-3.655 11.371-5.484 19.449-5.484 3.655 0 7.27.427 10.841 1.275l2.041.383 20.534-.638v13.646l-9.565-.765c1.869 2.891 2.806 5.783 2.806 8.672 0 8.503-2.168 14.37-6.504 17.6-4.336 3.232-11.14 4.846-20.406 4.846-1.957 0-3.699-.169-5.229-.51-.851 2.212-1.275 4.017-1.275 5.42s.721 2.359 2.168 2.87c1.445.51 4.847.809 10.203.893 10.713.085 18.024 1.51 21.937 4.272 3.907 2.766 5.864 7.782 5.864 15.051zm-44.128 1.849c0 3.655 4.484 5.484 13.455 5.484 8.969 0 13.455-2.126 13.455-6.376 0-2.296-.765-3.763-2.295-4.4-1.531-.638-4.763-1-9.693-1.084l-11.479-.893c-2.295 2.295-3.443 4.719-3.443 7.269zm1.02-52.226c0 6.249 3.252 9.374 9.756 9.374s9.756-3.125 9.756-9.374c0-6.25-3.252-9.374-9.756-9.374s-9.756 3.125-9.756 9.374z"/><path d="m802.613 155.673c1.997 1.744 4.866 2.614 8.609 2.614 7.907 0 14.963-.255 21.171-.765l3.571-.382.255 12.626c-9.778 2.379-18.621 3.571-26.528 3.571-9.609 0-16.58-2.551-20.916-7.652-4.336-5.102-6.504-13.392-6.504-24.87 0-22.871 9.394-34.308 28.186-34.308 18.535 0 27.803 9.609 27.803 28.823l-1.275 11.861h-37.496c.083 3.913 1.125 6.74 3.124 8.482zm18.811-21.49c0-5.101-.809-8.65-2.423-10.649-1.616-1.997-4.444-2.997-8.481-2.997-4.04 0-6.887 1.042-8.545 3.125-1.658 2.084-2.531 5.592-2.615 10.521z"/></g><path d="m281.232 141.485c0 16.156-6.291 31.345-17.714 42.769-9.01 9.011-20.365 14.829-32.687 16.884v23.469c0 1.104-1.114 1.86-2.14 1.452l-11.667-4.643c-.583-.232-14.432-5.822-28.213-18.212-5.219-4.692-9.726-9.75-13.545-15.105-.197-.277-.19-.649.013-.921 3.282-4.399 6.067-9.045 8.316-13.915.811-1.756 1.534-3.542 2.198-5.345.119-.324.564-.347.717-.038 3.557 7.179 8.66 13.833 15.312 19.907 3.003 2.742 6.028 5.086 8.848 7.048v-12.248c0-.431.35-.781.781-.781h9.299c10.77 0 20.895-4.194 28.511-11.81 7.5-7.5 11.681-17.434 11.807-28.02.26-21.838-17.086-40.044-38.911-40.791-14.684-.503-27.704 6.899-35.15 18.266-.175.267-.574.227-.691-.07-2.515-6.382-6.085-12.234-10.495-17.346-.256-.297-.257-.738.005-1.03.698-.778 1.413-1.545 2.158-2.29 11.423-11.423 26.612-17.715 42.767-17.715s31.343 6.292 42.767 17.716c11.423 11.424 17.714 26.613 17.714 42.769zm-100.802 0c0 19.461-8.127 37.054-23.502 50.876-11.289 10.149-22.693 14.752-23.172 14.943l-11.667 4.643c-1.026.408-2.14-.348-2.14-1.452v-19.619c-23.152-4.719-40.585-25.362-40.318-49.948.298-27.469 22.805-49.78 50.274-49.847 27.848-.067 50.525 22.57 50.525 50.404zm-20.16 0c0-17.072-14.219-30.886-31.436-30.219-15.695.608-28.414 13.328-29.022 29.024-.667 17.218 13.146 31.438 30.217 31.438h9.299c.431 0 .781.35.781.781v7.663c1.252-.982 2.528-2.055 3.797-3.218 10.858-9.956 16.364-21.889 16.364-35.469z" fill="#49a0cc"/><path d="m0 0h918v280h-918z" fill="none" opacity=".1"/></svg>
