<svg height="512" enable-background="new 0 0 512 176" viewBox="0 0 512 176" xmlns="http://www.w3.org/2000/svg"><g fill="#3880ff"><path d="m90.4 49.6c-21.2 0-38.5 17.2-38.5 38.5s17.2 38.5 38.5 38.5 38.5-17.2 38.5-38.5c-.1-21.3-17.4-38.5-38.5-38.5z"/><circle cx="145.5" cy="35.4" r="17.6"/><path d="m167.1 53-.7-1.6-1.1 1.4c-2.9 3.2-6.5 5.7-10.6 7.2l-1.1.5.5 1.1c3.6 8.4 5.3 17.3 5.3 26.4 0 38-30.9 69-69 69s-68.9-31-68.9-69 30.9-69 69-69c10.3 0 20.2 2.3 29.5 6.7l1 .5.5-1.1c1.7-4 4.4-7.5 7.8-10.2l1.4-1.1-1.6-.8c-12.1-6.2-25-9.4-38.7-9.4-46.6-.2-84.5 37.7-84.5 84.2s37.9 84.4 84.4 84.4 84.4-37.9 84.4-84.4c0-11.9-2.5-23.7-7.6-34.8z"/><path d="m218.2 51.3h17.8v73.5h-17.8z"/><path d="m410.3 51.3h17.8v73.5h-17.8z"/><path d="m369.2 49.6c-12.5 0-22.2 7.6-24.3 9.6l-1.1-7.9h-14.8v73.5h17.8v-44.5c0-8.7 11.8-15.8 20.6-15.8 8.5 0 15.2 8.3 15.2 18.1v42.1h17.8v-40.3c-.3-19.3-8.7-34.8-31.2-34.8z"/><path d="m474.8 111.5c-13.4 0-22.3-10.4-22.3-23.4s8.8-23.4 22.3-23.4c11.4 0 18.4 11 18.4 11l12.8-8.7c-3.7-5.7-8-9.2-13.9-12.7-4.4-2.6-10.2-4.8-16.8-4.8-22.3 0-39.3 16.8-39.4 38.5.1 21.7 17.1 38.5 39.4 38.5 6.5 0 12.4-2.2 16.8-4.8 5.9-3.6 10.2-7 13.9-12.7l-12.9-8.6c0-.1-6.9 11.1-18.3 11.1z"/><path d="m282.4 49.6c-22.4 0-38.5 17.6-38.5 38.1 0 20.9 15.6 38.8 38.8 38.8 21 0 38.1-16.1 38.1-38.4.1-25.4-19.9-38.5-38.4-38.5zm.2 15.1c11 0 21.5 9 21.5 23.4 0 14.1-10.4 23.3-21.6 23.3-12.2 0-21.8-9.9-21.8-23.4 0-13.4 9.5-23.3 21.9-23.3z"/></g></svg>
