<svg height="512" viewBox="0 0 530 190.3" xmlns="http://www.w3.org/2000/svg" xmlns:xlink="http://www.w3.org/1999/xlink"><linearGradient id="a" gradientUnits="userSpaceOnUse" x2="435.136" y1="95.147" y2="95.147"><stop offset="0" stop-color="#f7941e"/><stop offset=".213" stop-color="#f3961f"/><stop offset=".404" stop-color="#e99b22"/><stop offset=".586" stop-color="#d6a328"/><stop offset=".762" stop-color="#bdaf30"/><stop offset=".933" stop-color="#9cbf3a"/><stop offset="1" stop-color="#8dc63f"/></linearGradient><path d="m442.7 80.7c-4.5-13.2-13.3-19.8-26.4-19.8h-11.4c-.2 0-.3.2-.3.5 0 2.9 1.2 5.3 3.7 7 .4.3 1 .9 2.9.9 6.7 0 11 .1 16.2 4 4.9 3.6 7.3 9.6 7.3 18v89.3c0 6.4 2.9 9.6 8.7 9.6.4 0 .6-.3.6-.6v-97.3c.2-4-.3-7.9-1.3-11.6zm-146.9 69.2h44.4c5.9 0 8.8-3.4 8.8-10.3v-4.7c0-6-.8-11-2.4-15-4.3-11.4-13.2-17.1-28.4-17.1-13.4 0-18.8 3.6-22.5 6.7-6.3 5.2-9.4 13.2-9.4 23.9v30.3l.6 5.3c3.3 13.9 13.2 20.9 29.7 20.9h31.8c.4 0 .6-.3.5-.7 0-.2-.3-1.8-.8-3.1-1.2-3.3-4.4-5-9.7-5h-16.8s-11 0-13.5-.9c-8.6-2.9-12.9-8.9-12.9-18v-11.8c.1-.2.3-.5.6-.5zm-.5-13.3c0-6 .4-10.5 1.2-13.5 2.7-7.7 9.7-11.5 21.9-11.5 15.4 0 21.9 7.4 21.9 22.1v3.2c0 2.9-1.5 4.4-4.4 4.4h-40.6zm-43.6-63c-3.4 4.8-5 10.8-5 18v88.5c0 2 .5 3.6 1 4.8 1.4 3.3 3.9 5 7.5 5 .3 0 .6-.1.6-.6v-69.5h15c5.8 0 9.4-3 9.4-7.7 0-.6-.2-.9-.6-.9h-23.8v-19.4c0-1.4.5-5.8.8-6.8 2.4-8.7 8-13.5 15.7-13.5 8.8-.7 13.2-3.3 13.2-7.9 0-1 0-1.2-.7-1.2h-10.2c-12.8.1-19.6 6.6-22.9 11.2zm-60.8 28.9h-35.2c-2.3 0-5.8.6-5.8.6-14.3 3.3-21.5 12.5-21.5 27.7v58.6c0 .3.2.6.6.6h30.9c10.3 0 17.7-2.5 22.4-7.4h.3c0 4.1 2.6 6.5 7.9 7.4.6 0 .9-.2.9-.6v-86.2c.1-.4-.2-.7-.5-.7zm-8.6 56.5c0 2.9-.5 7.2-1.2 9.4s-3 5.7-5.2 7.6c-3.6 3.2-8.4 4.7-14.5 4.7h-23.5v-50.9c0-2 .3-4.6.9-6.8.6-2.5 3.4-6.1 5.9-7.9 3.2-2.4 7.3-3.5 12.4-3.5h25.3v47.4zm46.8-55.9c-7.4 0-11.9 2.2-17.1 6.5h-.3c0-2.9-2.2-5-6.7-6.4-.5-.1-1.2-.4-1.6-.4-.3 0-.6.2-.6.6v77.4c0 1.2-.1 2.2.3 3.2 1.6 4 4.2 5.9 8.2 5.9.5 0 .6-.4.6-.6v-56.5c0-5.5 1.5-10.3 3.3-13.3 2.1-3.6 8.2-7.9 12.2-7.9 4.1 0 6.5-2.4 7.6-7.1 0-.2.1-.7.1-.9s-.2-.6-.6-.6-5.4.1-5.4.1zm-142.3-.3h-3.2c-11.6 0-19.9 3.9-24.7 11.8h-.9c-4.9-7.8-12.9-11.8-24.1-11.8h-6.5c-7.2 0-13.4 2.4-18.5 7.1-.7-4.7-3.4-7.1-8.2-7.1-.3 0-.6.4-.6.6v78.3c0 1.4.4 2.1.7 2.7 1.6 3.7 4.1 5.5 7.6 5.5.3 0 .6-.3.6-.6v-57.4c0-2.7.5-5.7 1.5-9.1 3.4-7.5 9.5-11.2 18.3-11.2h5.6c3 0 6.2.7 9.7 2.1 6.7 3.1 10 9.8 10 20v48c0 .5.3 1.8.3 1.8 1.4 4.3 4 6.5 7.9 6.5.3 0 .6-.2.6-.6v-53.6c0-6.9.8-11.8 2.4-14.7 2.9-6.3 9-9.4 18.2-9.4h4.1c13.7 0 20.6 8.2 20.6 24.7v44.1c0 1 .1 1.4.2 1.8.9 5.1 3.5 7.7 7.8 7.7.6 0 .9-.2.9-.6v-54.4c0-7.8-1.3-13.8-3.8-18-4.7-9.5-13.4-14.2-26.5-14.2zm442.4-102.8h-39.3-17.5c-15 0-24.4 7.2-27.7 21.5 0 0-.6 3.6-.6 5v35.3c0 .9.2 1.1 1.1 1.1h56.5c15.2 0 24.4-7.2 27.7-21.5 0 0 .6-2.6.6-5v-35.7s-.3-.7-.8-.7zm-8.4 34.4c0 9.1-3.7 15.1-11.5 18.2-1.3.5-4.9 1.2-11.1 1.2h-45v-25.3c0-9.1 3.7-15 11.5-18.2 2.2-.9 4.6-.9 6.8-.9h49.3zm-151.1 115.5h44.4c5.9 0 8.8-3.4 8.8-10.3v-4.7c0-6-.8-11-2.4-15-4.3-11.4-13.2-17.1-28.4-17.1-13.4 0-18.8 3.6-22.5 6.7-6.3 5.2-9.4 13.2-9.4 23.9v30.3l.6 5.3c3.3 13.9 13.2 20.9 29.7 20.9h31.8c.4 0 .6-.3.5-.7 0-.2-.3-1.8-.8-3.1-1.2-3.3-4.4-5-9.7-5h-16.8s-11 0-13.5-.9c-8.6-2.9-12.9-8.9-12.9-18v-11.8c0-.2.2-.5.6-.5zm-.6-13.3c0-6 .4-10.5 1.2-13.5 2.7-7.7 9.7-11.5 21.9-11.5 15.4 0 21.9 7.4 21.9 22.1v3.2c0 2.9-1.5 4.4-4.4 4.4h-40.6z" fill="url(#a)"/></svg>
