<svg height="512" viewBox="0 0 413 488" width="413" xmlns="http://www.w3.org/2000/svg"><g fill="#1b1b1b" fill-rule="evenodd"><path d="m165.625 200.5c0 8.347-1.564 16.324-4.407 23.665-32.605-16.475-54.968-50.264-54.968-89.29 0-11.808 2.053-23.134 5.81-33.651 9.587 1.153 18.754 3.665 27.309 7.335-3.211 8.152-4.994 17.023-4.994 26.316 0 24.465 12.234 46.059 30.908 59.037.217 2.168.342 4.362.342 6.588zm-20.588-89.303c32.605 16.476 54.963 50.277 54.963 89.303 0 55.229-44.771 100-100 100v-28.125c39.696 0 71.875-32.18 71.875-71.875 0-24.471-12.239-46.073-30.92-59.053-.215-2.162-.33-4.353-.33-6.572 0-8.35 1.567-16.332 4.412-23.678zm103.123 121.336c11.779 23.613 36.158 39.842 64.34 39.842v28.125c-41.142 0-76.475-24.849-91.825-60.354 9.632-1.307 18.853-3.903 27.485-7.613zm-6.813-42.227c-8.493 5.39-18.299 8.886-28.839 9.887.153-51.008 38.493-93.025 87.936-98.967 3.122 8.734 5.042 18.036 5.611 27.701-33.291 2.961-60.053 28.606-64.708 61.379zm36.044-45.226c8.496-5.397 18.306-8.903 28.855-9.902-.163 55.089-44.868 99.697-99.996 99.697-1.89 0-3.767-.058-5.631-.161 3.01-8.856 4.88-18.236 5.444-27.969.062 0 .124.005.187.005 36.229 0 66.184-26.81 71.141-61.67z"/><path d="m132.537 386.717.203-25.631h-.153l-9.329 25.631h-6.077l-9.072-25.631h-.152l.203 25.631h-8.16v-36.222h12.329l8.173 23.228h.203l7.81-23.228h12.536v36.222zm58.621-18.191c0 2.901-.518 5.551-1.549 7.948-1.026 2.401-2.454 4.454-4.279 6.164-1.83 1.709-4.008 3.031-6.525 3.964-2.522.932-5.257 1.398-8.2 1.398-2.947 0-5.667-.466-8.175-1.398-2.497-.933-4.666-2.255-6.496-3.964-1.83-1.71-3.257-3.763-4.284-6.164-1.03-2.397-1.544-5.047-1.544-7.948 0-2.937.514-5.588 1.544-7.952 1.027-2.363 2.454-4.374 4.284-6.031s3.999-2.934 6.496-3.833c2.508-.899 5.228-1.347 8.175-1.347 2.943 0 5.678.448 8.2 1.347 2.517.899 4.695 2.176 6.525 3.833 1.825 1.657 3.253 3.668 4.279 6.031 1.031 2.364 1.549 5.015 1.549 7.952zm-9.744 0c0-1.587-.271-3.074-.799-4.454-.532-1.38-1.273-2.565-2.212-3.55-.939-.984-2.076-1.76-3.407-2.331-1.331-.569-2.793-.851-4.391-.851-1.597 0-3.054.282-4.366.851-1.311.571-2.453 1.347-3.407 2.331-.958.985-1.694 2.17-2.212 3.55-.513 1.38-.77 2.867-.77 4.454 0 1.658.266 3.183.799 4.581.527 1.399 1.268 2.6 2.207 3.603.939 1.002 2.072 1.784 3.383 2.353 1.312.571 2.769.858 4.366.858 1.598 0 3.05-.287 4.367-.858 1.311-.569 2.449-1.351 3.407-2.353.954-1.003 1.704-2.204 2.236-3.603.528-1.398.799-2.923.799-4.581zm52.606-.022c0 3.172-.59 5.911-1.767 8.214-1.176 2.302-2.73 4.19-4.654 5.674-1.925 1.488-4.101 2.581-6.519 3.274-2.422.702-4.877 1.051-7.364 1.051h-13.503v-36.222h13.094c2.556 0 5.081.298 7.569.894 2.487.599 4.705 1.59 6.648 2.966 1.944 1.382 3.511 3.233 4.705 5.554 1.191 2.32 1.791 5.186 1.791 8.595zm-9.104 0c0-2.046-.33-3.744-1-5.093-.66-1.344-1.553-2.418-2.659-3.223-1.107-.795-2.371-1.372-3.784-1.711-1.414-.34-2.874-.512-4.371-.512h-4.352v21.181h4.147c1.567 0 3.074-.177 4.529-.541 1.446-.353 2.724-.943 3.831-1.762 1.106-.819 1.999-1.911 2.659-3.274.67-1.363 1-3.051 1-5.065zm48.438 10.49c-.739 1.86-1.801 3.455-3.179 4.783-1.382 1.329-3.042 2.363-4.988 3.107-1.952.744-4.115 1.116-6.494 1.116-2.416 0-4.588-.372-6.515-1.116-1.933-.744-3.569-1.778-4.913-3.107-1.345-1.328-2.379-2.923-3.104-4.783-.723-1.859-1.086-3.923-1.086-6.193v-22.306h8.792v21.562c0 1.029.127 2.005.391 2.922.254.923.648 1.75 1.189 2.474.532.725 1.237 1.3 2.12 1.725.874.426 1.937.637 3.178.637s2.304-.211 3.179-.637c.884-.425 1.594-1 2.148-1.725.555-.724.95-1.551 1.19-2.474.24-.917.362-1.893.362-2.922v-21.562h8.844v22.306c0 2.27-.372 4.334-1.114 6.193zm33.308-19.14c-.784-.968-1.811-1.738-3.083-2.309-1.266-.571-2.488-.859-3.666-.859-.609 0-1.227.051-1.85.156-.624.103-1.189.302-1.685.599-.502.293-.921.675-1.257 1.138-.341.472-.511 1.067-.511 1.794 0 .623.136 1.143.4 1.558.267.416.662.779 1.182 1.09.517.312 1.13.6 1.846.86s1.52.523 2.41.803c1.286.415 2.625.873 4.018 1.373 1.392.506 2.663 1.171 3.803 2.002 1.139.831 2.088 1.86 2.838 3.092.75 1.227 1.125 2.762 1.125 4.593 0 2.11-.399 3.943-1.208 5.482-.803 1.539-1.878 2.813-3.238 3.814-1.358 1.006-2.911 1.751-4.659 2.233-1.748.486-3.555.727-5.41.727-2.717 0-5.342-.458-7.874-1.374-2.536-.916-4.641-2.224-6.321-3.923l5.999-5.92c.931 1.11 2.153 2.034 3.667 2.78 1.52.747 3.029 1.115 4.529 1.115.677 0 1.339-.071 1.981-.208.644-.137 1.203-.364 1.691-.675.481-.312.861-.727 1.148-1.246.287-.52.429-1.143.429-1.87 0-.694-.18-1.28-.535-1.766-.356-.486-.868-.925-1.53-1.321-.657-.397-1.48-.76-2.459-1.091-.988-.33-2.098-.685-3.35-1.066-1.212-.378-2.401-.831-3.559-1.351-1.164-.52-2.201-1.185-3.107-1.997-.915-.816-1.646-1.804-2.196-2.96-.56-1.161-.833-2.573-.833-4.234 0-2.04.429-3.791 1.286-5.246.857-1.454 1.982-2.648 3.375-3.583 1.392-.935 2.96-1.62 4.713-2.049 1.748-.434 3.515-.652 5.302-.652 2.143 0 4.329.383 6.56 1.143 2.234.765 4.187 1.889 5.867 3.376z"/></g></svg>
