<svg height="512" viewBox="0 0 734.44 172.53" xmlns="http://www.w3.org/2000/svg"><g transform="translate(-26.8 -27.82)"><path d="m761.23 89.69q-.38-13.21-9.76-20.87t-25.7-7.66a52.44 52.44 0 0 0 -15.84 2.28 32.46 32.46 0 0 0 -20.86 18.84 49.08 49.08 0 0 0 -3.71 17.2 50.26 50.26 0 0 0 1.79 17.45 29.91 29.91 0 0 0 18.64 20 42.76 42.76 0 0 0 15.14 2.53 46.78 46.78 0 0 0 13.92-2 39.62 39.62 0 0 0 11.79-5.87 34.39 34.39 0 0 0 8.64-9.13 33.05 33.05 0 0 0 4.72-11.9h-21.75a13.39 13.39 0 0 1 -5.69 9.21 18.91 18.91 0 0 1 -10.93 3.23q-6.28 0-10.81-5.87t-3.89-18.13a34.33 34.33 0 0 1 1.88-10.19 19.79 19.79 0 0 1 3.94-6.69 13.43 13.43 0 0 1 5.48-3.59 20.06 20.06 0 0 1 6.51-1.06 15.64 15.64 0 0 1 10.14 3.26 12.71 12.71 0 0 1 4.64 9h21.71zm-77.39-47.85a14 14 0 1 0 -14 14 14 14 0 0 0 14-14zm0 0a14 14 0 1 0 -14 14 14 14 0 0 0 14-14zm-26.51 21.27-3.91 74.36h21.53l3.91-74.36zm-7.78 18.26 1.05-20.06h-2.87q-3.23 0-6.47.25a23.4 23.4 0 0 0 -6.35 1.38 25.91 25.91 0 0 0 -6.09 3.26 28.4 28.4 0 0 0 -5.82 5.87l.47-9h-20.32l-3.91 74.36h21.53l2-38.65q.94-17.94 20.86-17.94a36.85 36.85 0 0 1 5.89.49zm-56.8-18.26h-44.85l1.26-14h-21.52l-3.72 60.68a33.59 33.59 0 0 0 1.28 11.42 23.37 23.37 0 0 0 5.42 9.46 27.15 27.15 0 0 0 10 6.53 41.09 41.09 0 0 0 15.12 2.44 42.08 42.08 0 0 0 15-2.44 31.3 31.3 0 0 0 10.66-6.53 26.91 26.91 0 0 0 6.42-9.46 34.86 34.86 0 0 0 2.47-11.25l1.12-21.36h-20.09l-1 19.41q-.37 7-3.59 10.76t-9.64 3.75q-6.59 0-9.24-3.83t-2.28-10.85l1.61-30.66h44.82l.73-14zm-78.16 22.83a25.59 25.59 0 0 0 -1.49-10.68 20.29 20.29 0 0 0 -5.22-7.75 23.16 23.16 0 0 0 -8.25-4.73 33.48 33.48 0 0 0 -10.74-1.63q-9.83 0-16.35 3.34a27.53 27.53 0 0 0 -10.61 9.51l.57-10.93h-20.62l-3.88 74.4h21.52l2.24-42.56q.9-17.12 17.76-17.13 7.71 0 10.7 3t2.53 11.66l-2.37 45h21.53l2.71-51.53zm-83.37 19.57q2.33-44.35-36.06-44.36-19 0-29.78 10.27t-11.68 27.58q-2.13 40.45 38.77 40.45a42.1 42.1 0 0 0 22.93-6.2 34.93 34.93 0 0 0 14.2-17.62h-22.23a11.56 11.56 0 0 1 -5.69 5.92 19.92 19.92 0 0 1 -9.45 2.24q-8.07 0-12.65-5t-4.69-13.26h56.33zm-21.6-12.4h-33.36q1.12-7.83 6-12.07a17 17 0 0 1 11.54-4.24 16.77 16.77 0 0 1 11.18 4q4.72 4 4.64 12.32zm-82.34-3.43h21.72q-.38-13.21-9.76-20.87t-25.7-7.66a52.44 52.44 0 0 0 -15.84 2.28 32.45 32.45 0 0 0 -20.85 18.84 49.12 49.12 0 0 0 -3.71 17.2 50.13 50.13 0 0 0 1.8 17.45 29.89 29.89 0 0 0 18.63 20 42.73 42.73 0 0 0 15.14 2.53 46.74 46.74 0 0 0 13.92-2 39.57 39.57 0 0 0 11.79-5.87 34.35 34.35 0 0 0 8.64-9.13 32.94 32.94 0 0 0 4.66-11.82h-21.72a13.38 13.38 0 0 1 -5.69 9.21 18.89 18.89 0 0 1 -10.92 3.16q-6.28 0-10.81-5.87t-3.9-18.13a34.22 34.22 0 0 1 1.88-10.19 19.81 19.81 0 0 1 3.94-6.69 13.4 13.4 0 0 1 5.5-3.61 20.05 20.05 0 0 1 6.51-1.06 15.65 15.65 0 0 1 10.14 3.26 12.71 12.71 0 0 1 4.64 9zm-61.21-26.57h-44.84l1.26-14h-21.49l-3.72 60.68a33.56 33.56 0 0 0 1.28 11.42 23.37 23.37 0 0 0 5.42 9.46 27.19 27.19 0 0 0 10 6.53 41.09 41.09 0 0 0 15.02 2.39 42.07 42.07 0 0 0 15-2.44 31.31 31.31 0 0 0 10.66-6.53 26.89 26.89 0 0 0 6.42-9.46 34.81 34.81 0 0 0 2.48-11.25l1.12-21.36h-20.04l-1 19.41q-.37 7-3.59 10.76t-9.64 3.75q-6.59 0-9.24-3.83t-2.28-10.85l1.61-30.66h44.85l.74-14zm-77 42.4q2.3-44.36-36.07-44.36-19 0-29.78 10.27t-11.7 27.58q-2.13 40.45 38.77 40.45a42.11 42.11 0 0 0 22.93-6.2 34.94 34.94 0 0 0 14.2-17.62h-22.24a11.54 11.54 0 0 1 -5.69 5.92 19.92 19.92 0 0 1 -9.45 2.24q-8.07 0-12.65-5t-4.68-13.26h56.29zm-21.63-12.4h-33.36q1.13-7.83 6-12.07a17 17 0 0 1 11.52-4.24 16.77 16.77 0 0 1 11.18 4q4.72 4 4.64 12.32zm-64-7.18a25.5 25.5 0 0 0 -1.5-10.68 20.18 20.18 0 0 0 -5.22-7.75 23.1 23.1 0 0 0 -8.25-4.73 33.48 33.48 0 0 0 -10.73-1.63q-9.83 0-16.36 3.34a27.57 27.57 0 0 0 -10.62 9.52l.58-10.93h-20.63l-3.91 74.4h21.53l2.24-42.56q.9-17.12 17.76-17.13 7.71 0 10.7 3t2.53 11.66l-2.37 45h21.53l2.71-51.53z" fill="#5a3699"/><path d="m221.89 191.64-3.28-7.95h-16.52l-3.28 7.95h-1.64l12.33-29.64h1.69l12.34 29.61h-1.64zm-11.54-28-7.72 18.69h15.45z"/><path d="m236.58 176.86c0-9.15 6.88-15.32 15.8-15.32a13.46 13.46 0 0 1 12.34 7.24l-5.42 2.66a8 8 0 0 0 -6.93-4.31c-5.42 0-9.32 4.13-9.32 9.72s3.91 9.72 9.32 9.72a8 8 0 0 0 6.93-4.31l5.42 2.62a13.56 13.56 0 0 1 -12.34 7.28c-8.92.01-15.8-6.16-15.8-15.3z"/><path d="m266.54 180.9a10.86 10.86 0 0 1 11.32-11.23c7.1 0 11.36 5.15 11.36 11.23a11.34 11.34 0 0 1 -22.68 0zm16.83 0c0-3.33-2-6.22-5.5-6.22s-5.46 2.89-5.46 6.22 2 6.26 5.46 6.26 5.5-2.89 5.5-6.26z"/><path d="m292.56 197.15 2.53-4a8.7 8.7 0 0 0 6.7 2.62c2.71 0 5.95-1.15 5.95-5.5v-2.09a8.33 8.33 0 0 1 -6.66 3.33c-5.33 0-9.46-3.73-9.46-10.88s4-10.92 9.46-10.92a8.22 8.22 0 0 1 6.66 3.29v-2.8h5.64v20c0 8.12-6.3 10.12-11.59 10.12a13.06 13.06 0 0 1 -9.23-3.17zm15.18-13.15v-7a6.35 6.35 0 0 0 -4.84-2.4c-3.24 0-5.46 2.22-5.46 5.9s2.22 5.9 5.46 5.9a6.39 6.39 0 0 0 4.84-2.4z"/><path d="m333 191.64v-13c0-3-1.55-4-4-4a6.27 6.27 0 0 0 -4.88 2.49v14.47h-5.64v-21.4h5.64v2.8a10 10 0 0 1 7.5-3.29c4.75 0 7 2.66 7 6.84v15.14h-5.62z"/><path d="m343.25 164.52a3.35 3.35 0 0 1 6.7 0 3.35 3.35 0 1 1 -6.7 0zm.53 27.12v-21.44h5.64v21.44z"/><path d="m353.64 191.64v-4.22l9.68-12.3h-9.68v-4.92h17.36v4l-9.86 12.47h10v4.93h-17.5z"/><path d="m388.26 191.64v-2.26a8.75 8.75 0 0 1 -6.79 2.8c-3.42 0-7.41-2.31-7.41-7.1 0-5.06 4-6.93 7.41-6.93 2.89 0 5.37.93 6.79 2.62v-2.71c0-2.18-1.86-3.6-4.71-3.6a9 9 0 0 0 -6.17 2.53l-2.22-4a13.84 13.84 0 0 1 9.37-3.37c4.93 0 9.41 2 9.41 8.12v13.85h-5.68zm0-5.15v-2.66a5.67 5.67 0 0 0 -4.53-1.91c-2.22 0-4 1.2-4 3.24s1.82 3.2 4 3.2a5.64 5.64 0 0 0 4.53-1.87z"/><path d="m413.52 191.64v-13c0-3-1.55-4-4-4a6.27 6.27 0 0 0 -4.88 2.49v14.47h-5.64v-21.4h5.64v2.8a10 10 0 0 1 7.5-3.29c4.75 0 7 2.66 7 6.84v15.14h-5.68z"/><path d="m425.46 186.27v-11.14h-3.55v-4.93h3.55v-5.86h5.64v5.86h4.35v4.93h-4.35v9.63c0 1.38.71 2.4 2 2.4a2.84 2.84 0 0 0 2-.67l1.2 4.31a7 7 0 0 1 -4.71 1.38c-4.04-.01-6.13-2.05-6.13-5.91z"/><path d="m450 191.64v-29.64h11.68c9.28 0 15.72 5.9 15.72 14.78s-6.44 14.83-15.67 14.83h-11.73zm21-14.83c0-5.19-3.2-9.23-9.23-9.23h-5.42v18.51h5.37c5.78 0 9.2-4.22 9.2-9.28z"/><path d="m480.73 164.52a3.35 3.35 0 0 1 6.7 0 3.35 3.35 0 1 1 -6.7 0zm.53 27.12v-21.44h5.64v21.44z"/><path d="m491.6 197.15 2.53-4a8.7 8.7 0 0 0 6.7 2.62c2.71 0 5.95-1.15 5.95-5.5v-2.09a8.32 8.32 0 0 1 -6.66 3.33c-5.33 0-9.46-3.73-9.46-10.88s4-10.92 9.46-10.92a8.21 8.21 0 0 1 6.66 3.29v-2.8h5.64v20c0 8.12-6.3 10.12-11.59 10.12a13.06 13.06 0 0 1 -9.23-3.17zm15.19-13.15v-7a6.34 6.34 0 0 0 -4.84-2.4c-3.24 0-5.46 2.22-5.46 5.9s2.22 5.9 5.46 5.9a6.39 6.39 0 0 0 4.84-2.4z"/><path d="m517 164.52a3.35 3.35 0 0 1 6.7 0 3.35 3.35 0 1 1 -6.7 0zm.53 27.12v-21.44h5.64v21.44z"/><path d="m529.51 186.27v-11.14h-3.51v-4.93h3.55v-5.86h5.64v5.86h4.35v4.93h-4.35v9.63c0 1.38.71 2.4 2 2.4a2.84 2.84 0 0 0 2-.67l1.2 4.31a7 7 0 0 1 -4.71 1.38c-4.08-.01-6.17-2.05-6.17-5.91z"/><path d="m555.79 191.64v-2.26a8.75 8.75 0 0 1 -6.79 2.8c-3.42 0-7.41-2.31-7.41-7.1 0-5.06 4-6.93 7.41-6.93 2.89 0 5.37.93 6.79 2.62v-2.71c0-2.18-1.86-3.6-4.71-3.6a9 9 0 0 0 -6.17 2.53l-2.22-4a13.84 13.84 0 0 1 9.37-3.37c4.93 0 9.41 2 9.41 8.12v13.85h-5.68zm0-5.15v-2.66a5.67 5.67 0 0 0 -4.53-1.91c-2.22 0-4 1.2-4 3.24s1.82 3.2 4 3.2a5.64 5.64 0 0 0 4.53-1.87z"/><path d="m566.58 191.64v-29.64h5.64v29.61h-5.64z"/><path d="m588.46 191.64v-29.64h15.54c5.64 0 8.52 3.6 8.52 7.55a6.61 6.61 0 0 1 -5.11 6.79 7.12 7.12 0 0 1 5.68 7.24c0 4.48-2.93 8-8.61 8h-16.02zm17.67-21c0-1.82-1.33-3.11-3.46-3.11h-7.9v6.22h7.9c2.13.05 3.46-1.15 3.46-3.06zm.58 12c0-1.86-1.33-3.37-3.77-3.37h-8.17v6.75h8.17c2.35.07 3.77-1.17 3.77-3.3z"/><path d="m631.79 191.64v-2.71a10.2 10.2 0 0 1 -7.55 3.24c-4.71 0-6.93-2.58-6.93-6.75v-15.22h5.69v13c0 3 1.55 4 4 4a6.31 6.31 0 0 0 4.88-2.44v-14.56h5.64v21.44h-5.64z"/><path d="m640.71 188.84 2.44-4.08a12.15 12.15 0 0 0 7.41 3c2.44 0 3.6-.93 3.6-2.26 0-3.51-12.7-.62-12.7-9.06 0-3.6 3.11-6.75 8.79-6.75a13.66 13.66 0 0 1 8.61 2.93l-2.26 4a9.25 9.25 0 0 0 -6.35-2.49c-2 0-3.37.89-3.37 2.09 0 3.15 12.74.49 12.74 9.15 0 4-3.37 6.84-9.32 6.84a14.43 14.43 0 0 1 -9.59-3.37z"/><path d="m662.77 164.52a3.35 3.35 0 0 1 6.7 0 3.35 3.35 0 1 1 -6.7 0zm.53 27.12v-21.44h5.64v21.44z"/><path d="m688.56 191.64v-13c0-3-1.55-4-4-4a6.27 6.27 0 0 0 -4.88 2.49v14.47h-5.64v-21.4h5.64v2.8a10 10 0 0 1 7.5-3.29c4.75 0 7 2.66 7 6.84v15.14h-5.68z"/><path d="m698 180.9a10.94 10.94 0 0 1 11.1-11.23c6.44 0 10.74 4.79 10.74 11.76v1.33h-15.96c.4 2.62 2.53 4.79 6.17 4.79a9 9 0 0 0 5.68-2.09l2.53 3.73a13.37 13.37 0 0 1 -8.83 3c-6.53-.02-11.43-4.41-11.43-11.29zm11.1-6.61a4.94 4.94 0 0 0 -5.24 4.57h10.54c-.18-2.05-1.6-4.58-5.33-4.58z"/><path d="m721.59 188.84 2.44-4.08a12.16 12.16 0 0 0 7.41 3c2.44 0 3.6-.93 3.6-2.26 0-3.51-12.7-.62-12.7-9.06 0-3.6 3.11-6.75 8.79-6.75a13.66 13.66 0 0 1 8.61 2.93l-2.26 4a9.25 9.25 0 0 0 -6.35-2.49c-2 0-3.37.89-3.37 2.09 0 3.15 12.74.49 12.74 9.15 0 4-3.37 6.84-9.32 6.84a14.43 14.43 0 0 1 -9.59-3.37z"/><path d="m742.32 188.84 2.44-4.08a12.15 12.15 0 0 0 7.41 3c2.44 0 3.6-.93 3.6-2.26 0-3.51-12.7-.62-12.7-9.06 0-3.6 3.11-6.75 8.79-6.75a13.66 13.66 0 0 1 8.61 2.93l-2.26 4a9.25 9.25 0 0 0 -6.35-2.49c-2 0-3.37.89-3.37 2.09 0 3.15 12.74.49 12.74 9.15 0 4-3.37 6.84-9.32 6.84a14.43 14.43 0 0 1 -9.59-3.37z"/></g></svg>
