<svg height="512" enable-background="new 0 0 360 53.3" viewBox="0 0 360 53.3" xmlns="http://www.w3.org/2000/svg"><g fill="#342040"><path d="m6.6 49.2c0 1 0 1.9-.4 2.7s-1.6 1.2-2.9 1.2c-1.4 0-2.5-.4-2.9-1.2-.4-.9-.4-1.7-.4-2.7v-43.2c0-2.3 0-3.5 3.5-4.3 1.6-.4 4.3-.8 7.6-.8 3.9 0 8.6.4 12.1 2.3 4.5 2.3 7.2 6.6 7.2 12.1 0 6.6-3.5 11.5-9.9 14l14.2 19.6c1.2 1.6 1 3.9-2.7 3.9-2.9 0-3.7-1.2-4.9-3.1l-9.3-13.2c-2.5-3.5-3.7-5.8-3.7-5.8s-1.6.4-4.1.4c-2.1 0-2.9-.2-2.9-.2zm0-23.9s1 .2 2.9.2c8.4 0 13.4-2.9 13.4-9.7 0-7.2-5.6-9.1-11.7-9.1-2.5 0-4.7.4-4.7.4v18.1h.1z"/><path d="m98.4 49.2c0 1 0 1.9-.4 2.7-.6 1-1.9 1.2-2.9 1.2-1.4 0-2.3-.4-2.9-1.2-.4-.8-.4-1.6-.4-2.7v-45.5c0-1.9 1-2.9 3.1-2.9 2.3 0 3.3 1.2 4.9 3.5l28.8 36.4v-36c0-1 0-1.9.4-2.7.6-1 1.9-1.2 2.9-1.2 1.4 0 2.3.4 2.9 1.2.4.8.4 1.6.4 2.7v45.5c0 1.9-1 2.9-2.9 2.9-2.1 0-3.1-1-4.7-3.5l-29.2-36.6z"/><path d="m190 45.7c0 2.5-.6 3.7-4.7 5.1-3.7 1.4-8 2.3-12.8 2.3-15 0-27.2-8.9-27.2-26.6 0-18.9 14-26.6 27.2-26.6 4.9 0 9.9 1 13.8 3.3 2.3 1.2 3.3 2.3 3.3 3.5 0 1.6-1 3.5-2.9 3.5-1.4 0-2.7-1.2-5.6-2.5-2.3-1-5.4-1.6-9.3-1.6-9.3 0-19.6 5.4-19.6 20.2 0 14 9.3 20.8 20.2 20.8 6.2 0 10.5-2.3 10.5-2.3v-9.1c0-1 0-1.9.4-2.7s1.6-1.2 2.9-1.2c1.4 0 2.5.4 2.9 1.2s.4 1.6.4 2.7z"/><path d="m225.6 46.3c1 0 1.9.2 2.5.6s1 1.2 1 2.5-.4 2.1-1 2.5c-.8.4-1.6.6-2.5.6h-21c-2.5 0-3.3-1-3.3-3.3v-44.7c0-1 0-1.9.4-2.7s1.6-1.2 2.9-1.2 2.5.4 2.9 1.2.4 1.6.4 2.7v41.8z"/><path d="m243.5 21.8h12.6c1 0 1.9 0 2.5.6.6.4 1 1.2 1 2.5 0 1.2-.4 2.1-1 2.5-.8.4-1.6.6-2.5.6h-12.6v18.3h17.7c1 0 1.9.2 2.5.6s1 1.2 1 2.5-.4 2.1-1 2.5c-.8.4-1.6.6-2.5.6h-21c-2.5 0-3.3-1-3.3-3.3v-44.7c0-2.3 1-3.3 3.3-3.3h18.7c1 0 1.9 0 2.5.6.6.4 1 1.2 1 2.5s-.4 2.1-1 2.5c-.8.4-1.6.6-2.5.6h-15.2v14.4z"/></g><path d="m276.2 53.1c-2.5 0-4.1-1.6-4.1-4.1s1.6-4.1 4.1-4.1 4.1 1.9 4.1 4.1c-.2 2.5-1.8 4.1-4.1 4.1z" fill="#e33230"/><path d="m297.4 49.2c0 1 0 1.9-.4 2.7s-1.6 1.2-2.9 1.2c-1.4 0-2.5-.4-2.9-1.2s-.4-1.6-.4-2.7v-44.5c0-1 0-1.9.4-2.7s1.6-1.2 2.9-1.2c1.4 0 2.5.4 2.9 1.2s.4 1.6.4 2.7z" fill="#e33230"/><path d="m333.9 0c16 0 26.1 11.1 26.1 26.6 0 15.6-10.3 26.8-26.6 26.8-16.1 0-26.1-11.1-26.1-26.6.2-15.7 10.5-26.8 26.6-26.8zm0 47.8c11.7 0 19.1-7.6 19.1-20.8 0-13.4-7.6-21-19.3-21s-19.1 7.6-19.1 20.8c-.1 13.3 7.5 21 19.3 21z" fill="#e33230"/><path d="m83.6 48.6-16.9-43.9c-1-2.3-1.6-3.9-4.1-3.9s-3.3 1.6-4.1 4.1l-17.7 43.9c-.4 1-.6 1.6-.6 2.3 0 1.2 1 2.3 3.1 2.3 2.7 0 3.3-1.4 4.1-3.3l2.7-6.8.2-.6 2.5-6.6 3.1-8 6.6-16.9 7.2 18.7h-9.9c-.2 0-.4.2-.4.2l-2.1 5.4c-.2.4.2.4.4.4h14l5.4 14c1 2.3 1.6 3.3 4.1 3.3 2.3 0 3.3-1 3.3-2.3-.3-.7-.5-1.5-.9-2.3z" fill="#342040"/></svg>
